<?xml version="1.0" encoding="UTF-8"?>
<svg version="1.1" xmlns="http://www.w3.org/2000/svg" width="1024" height="1024">
<path d="M0 0 C2.34834176 1.40361206 4.61724393 2.82237547 6.84399414 4.41259766 C7.66899414 4.99702637 8.49399414 5.58145508 9.34399414 6.18359375 C10.20895508 6.80314941 11.07391602 7.42270508 11.96508789 8.06103516 C13.76778273 9.33805223 15.57116515 10.61409926 17.37524414 11.88916016 C18.24294434 12.50339844 19.11064453 13.11763672 20.00463867 13.75048828 C22.94281302 15.81576579 25.91069304 17.82438519 28.90258789 19.81103516 C29.74088135 20.38354004 30.5791748 20.95604492 31.44287109 21.54589844 C34.36589335 23.4929517 34.36589335 23.4929517 37.53833008 24.95996094 C41.06783839 26.82611894 43.65789762 28.5203312 46.40258789 31.43603516 C47.88400599 37.01151347 47.55102072 42.22767054 47.15258789 47.93603516 C47.09231032 49.44102999 47.03757196 50.94625746 46.98852539 52.45166016 C46.8672063 56.12358453 46.63322255 59.76296472 46.40258789 63.43603516 C39.80258789 63.43603516 33.20258789 63.43603516 26.40258789 63.43603516 C26.40258789 55.18603516 26.40258789 46.93603516 26.40258789 38.43603516 C7.26258789 38.43603516 -11.87741211 38.43603516 -31.59741211 38.43603516 C-31.59741211 53.28603516 -31.59741211 68.13603516 -31.59741211 83.43603516 C-26.64741211 83.43603516 -21.69741211 83.43603516 -16.59741211 83.43603516 C-16.78303711 81.62103516 -16.96866211 79.80603516 -17.15991211 77.93603516 C-17.53030822 74.31438426 -17.17392439 72.27357233 -15.10107422 69.26220703 C-10.5134345 64.37479598 -6.84539258 62.90678692 -0.15600586 62.65478516 C2.55616653 62.67820623 5.25656723 62.80033709 7.96508789 62.93603516 C9.36928241 62.97624301 10.77358862 63.01273093 12.17797852 63.04541016 C15.58737987 63.1391394 18.9953508 63.2826136 22.40258789 63.43603516 C22.40258789 70.36603516 22.40258789 77.29603516 22.40258789 84.43603516 C18.67832608 85.67745576 15.31906893 85.45426905 11.45336914 85.31494141 C10.68075241 85.29133041 9.90813568 85.26771942 9.11210632 85.24339294 C6.64624149 85.16686594 4.18069943 85.08279469 1.71508789 84.99853516 C0.0425776 84.94530348 -1.6299484 84.89256315 -3.30249023 84.84033203 C-7.40106119 84.71218813 -11.49910916 84.57384669 -15.59741211 84.43603516 C-15.59741211 95.65603516 -15.59741211 106.87603516 -15.59741211 118.43603516 C-19.99409321 116.67736272 -23.68213491 114.63553953 -27.61303711 112.07666016 C-28.26947205 111.64979919 -28.92590698 111.22293823 -29.60223389 110.78314209 C-30.98231313 109.88145744 -32.36055907 108.97696126 -33.73706055 108.06982422 C-35.14571022 107.14615157 -36.55983515 106.23077627 -37.97924805 105.32373047 C-40.03614149 104.00926039 -42.07570572 102.67119449 -44.11303711 101.32666016 C-44.74840393 100.92642639 -45.38377075 100.52619263 -46.03839111 100.11383057 C-48.91405836 98.17752483 -50.44280078 97.08640375 -51.26060486 93.64633179 C-51.57976311 90.60425751 -51.74392213 87.64377103 -51.77441406 84.5859375 C-51.7872493 83.45811859 -51.80008453 82.33029968 -51.81330872 81.16830444 C-51.82069565 79.96501495 -51.82808258 78.76172546 -51.83569336 77.52197266 C-51.84376511 76.27477448 -51.85183685 75.02757629 -51.8601532 73.74258423 C-51.87395517 71.11176937 -51.88469462 68.4809369 -51.89257812 65.85009766 C-51.90369039 62.48287686 -51.93817381 59.11630818 -51.97774982 55.74931908 C-52.01016447 52.52776859 -52.01468664 49.30616137 -52.02319336 46.08447266 C-52.04070145 44.8771347 -52.05820953 43.66979675 -52.07624817 42.4258728 C-52.0733226 41.30435822 -52.07039703 40.18284363 -52.06738281 39.02734375 C-52.07324905 38.04172455 -52.0791153 37.05610535 -52.0851593 36.0406189 C-51.32398453 31.97592417 -48.86430675 30.3863621 -45.67617798 27.99487305 C-44.67740128 27.33346313 -44.67740128 27.33346313 -43.65844727 26.65869141 C-42.89730621 26.15136475 -42.13616516 25.64403809 -41.35195923 25.12133789 C-40.5383493 24.58581299 -39.72473938 24.05028809 -38.88647461 23.49853516 C-38.04071869 22.93658447 -37.19496277 22.37463379 -36.32357788 21.7956543 C-33.62605617 20.00474684 -30.92432959 18.22030212 -28.22241211 16.43603516 C-26.41223302 15.23594147 -24.6023341 14.03542507 -22.79272461 12.83447266 C-13.76309575 6.84418212 -13.76309575 6.84418212 -10.60064697 4.78320312 C-9.33377437 3.93123603 -8.08989599 3.04307283 -6.88275146 2.10839844 C-3.20225036 -0.69529075 -3.20225036 -0.69529075 0 0 Z " fill="#090909" transform="translate(190.597412109375,429.56396484375)"/>
<path d="M0 0 C5.28 0 10.56 0 16 0 C16 4.62 16 9.24 16 14 C24.91 14 33.82 14 43 14 C44.40724777 18.19875741 45.81356465 22.39780318 47.2175293 26.59765625 C47.69517516 28.02557279 48.17335998 29.45330917 48.65209961 30.88085938 C49.34110865 32.93572332 50.02816112 34.99123264 50.71484375 37.046875 C51.12855225 38.28276367 51.54226074 39.51865234 51.96850586 40.79199219 C52.73262204 43.16843872 53.39456522 45.57826087 54 48 C57.96 36.78 61.92 25.56 66 14 C70.95 14 75.9 14 81 14 C79.74180306 20.23617979 78.06161826 25.9700028 75.734375 31.8828125 C75.41849426 32.70014862 75.10261353 33.51748474 74.77716064 34.35958862 C73.77410022 36.95043204 72.7621495 39.53769588 71.75 42.125 C71.0866678 43.8357159 70.42390323 45.54665201 69.76171875 47.2578125 C68.15618453 51.40095016 66.53606254 55.53818645 64.91040039 59.67346191 C64.03767334 61.90372536 63.17669712 64.13819 62.31835938 66.37402344 C61.80102913 67.70517449 61.28346548 69.03623486 60.765625 70.3671875 C60.32508789 71.5104248 59.88455078 72.65366211 59.43066406 73.83154297 C56.91875369 79.39461001 54.03837149 83.51189666 49 87 C45.43954823 88.18681726 42.56191663 88.09689832 38.8125 88.0625 C37.54019531 88.05347656 36.26789062 88.04445313 34.95703125 88.03515625 C33.98121094 88.02355469 33.00539063 88.01195312 32 88 C30.57833108 83.73499324 31.42002627 80.44646526 32 76 C37.94 75.01 37.94 75.01 44 74 C46.32695983 67.0191205 44.43359832 61.5403721 41.82421875 55.03125 C41.4983931 54.1921106 41.17256744 53.35297119 40.83686829 52.48840332 C39.79804784 49.82115953 38.74295409 47.16069921 37.6875 44.5 C36.98918016 42.71265111 36.29190416 40.92489402 35.59570312 39.13671875 C32.82649433 32.04753104 30.03206834 24.98146926 27 18 C26.67 20.64 26.34 23.28 26 26 C22.7 26 19.4 26 16 26 C16.11798944 29.96952899 16.24221799 33.93880781 16.37231445 37.90795898 C16.41571223 39.25914147 16.4573837 40.61038053 16.49731445 41.96166992 C16.55489952 43.90036701 16.61914298 45.83886276 16.68359375 47.77734375 C16.72025146 48.94515381 16.75690918 50.11296387 16.79467773 51.31616211 C16.70076188 53.91779795 16.70076188 53.91779795 18 55 C19.34747084 55.23075082 20.70377565 55.41153063 22.0625 55.5625 C23.361875 55.706875 24.66125 55.85125 26 56 C26 59.96 26 63.92 26 68 C23.45716766 68.10871967 20.91904912 68.18762401 18.375 68.25 C17.66214844 68.28351563 16.94929687 68.31703125 16.21484375 68.3515625 C11.00792508 68.44710229 8.07691396 67.51499326 4 64 C0.64139313 59.90938907 0.4279132 55.73823636 0.25 50.625 C0.21398682 49.8407666 0.17797363 49.0565332 0.14086914 48.24853516 C-0.13701743 40.78249869 0.28738842 33.43308695 1 26 C-0.7015625 26.0309375 -0.7015625 26.0309375 -2.4375 26.0625 C-6 26 -6 26 -7 25 C-7.09851171 23.16884117 -7.12972629 21.33380067 -7.125 19.5 C-7.12757813 18.4996875 -7.13015625 17.499375 -7.1328125 16.46875 C-7 14 -7 14 -6 13 C-4.02 13 -2.04 13 0 13 C0 8.71 0 4.42 0 0 Z " fill="#141313" transform="translate(579,464)"/>
<path d="M0 0 C6.32904407 6.38237871 8.49776391 14.55679542 8.828125 23.33984375 C8.54582398 32.50286438 5.65067919 40.20464597 -0.77734375 46.80859375 C-6.45856599 51.75089369 -12.11263032 51.97503187 -19.4296875 51.83984375 C-24.01015971 51.20960679 -27.11972518 49.35431339 -30.609375 46.40234375 C-31.40393913 56.57830795 -31.40393913 56.57830795 -31.609375 66.77734375 C-31.609375 67.97359375 -31.609375 69.16984375 -31.609375 70.40234375 C-32.609375 71.40234375 -32.609375 71.40234375 -35.76953125 71.5 C-37.05730469 71.48839844 -38.34507812 71.47679687 -39.671875 71.46484375 C-41.60740234 71.45130859 -41.60740234 71.45130859 -43.58203125 71.4375 C-44.58105469 71.42589844 -45.58007812 71.41429687 -46.609375 71.40234375 C-47.56411643 67.38542868 -47.73606172 63.64048803 -47.73876953 59.51660156 C-47.74052185 58.84448135 -47.74227417 58.17236115 -47.74407959 57.47987366 C-47.74845971 55.27171197 -47.74557504 53.06363116 -47.7421875 50.85546875 C-47.74286133 49.31801335 -47.74383201 47.78055806 -47.74508667 46.24310303 C-47.74655816 43.02875753 -47.74442553 39.8144399 -47.73974609 36.60009766 C-47.73402988 32.47166369 -47.73734318 28.34329446 -47.74331856 24.21486282 C-47.74692261 21.04426582 -47.74578664 17.87368431 -47.74319077 14.70308685 C-47.74252206 13.17997988 -47.74334798 11.65687152 -47.74567032 10.13376617 C-47.74819636 8.01264174 -47.74435788 5.89162423 -47.73876953 3.77050781 C-47.73797394 2.56203186 -47.73717834 1.35355591 -47.73635864 0.10845947 C-47.609375 -2.59765625 -47.609375 -2.59765625 -46.609375 -3.59765625 C-44.25623945 -3.67037366 -41.90103832 -3.68136493 -39.546875 -3.66015625 C-38.25652344 -3.65113281 -36.96617187 -3.64210938 -35.63671875 -3.6328125 C-34.63769531 -3.62121094 -33.63867188 -3.60960937 -32.609375 -3.59765625 C-32.279375 -1.94765625 -31.949375 -0.29765625 -31.609375 1.40234375 C-30.784375 0.61859375 -29.959375 -0.16515625 -29.109375 -0.97265625 C-20.81109029 -7.74637238 -8.12204545 -6.80122738 0 0 Z M-27.609375 10.40234375 C-32.23712379 15.33860913 -31.94480285 20.77352783 -31.89453125 27.22265625 C-31.50400088 31.57733733 -30.63396853 33.29373374 -27.609375 36.40234375 C-24.68292603 38.70169652 -21.39830563 38.93533202 -17.7109375 38.859375 C-13.83012049 38.0154055 -11.11366031 35.38570973 -8.609375 32.40234375 C-6.72928241 26.76206598 -6.30502882 19.64426641 -8.55078125 14.0625 C-10.9576284 10.49372665 -13.42414036 8.39358353 -17.609375 7.40234375 C-21.56639768 7.40234375 -24.08604362 8.64067806 -27.609375 10.40234375 Z " fill="#131313" transform="translate(467.609375,481.59765625)"/>
<path d="M0 0 C4.6773121 -0.0498443 9.35446584 -0.08592757 14.03198242 -0.10986328 C15.61957496 -0.11985321 17.20714943 -0.1334498 18.79467773 -0.15087891 C43.40267493 -0.41406604 43.40267493 -0.41406604 52.25 8.1875 C56.73424653 15.39432479 58.3371428 23.07006236 56.4609375 31.390625 C54.77348366 36.99074653 52.88912951 41.30221438 47.66015625 44.375 C42.09126644 47.25348637 37.54603846 49.13811563 31.234375 49.09765625 C30.43225586 49.09515869 29.63013672 49.09266113 28.80371094 49.09008789 C27.79598633 49.08098389 26.78826172 49.07187988 25.75 49.0625 C22.5325 49.041875 19.315 49.02125 16 49 C16 57.25 16 65.5 16 74 C13.380625 74.020625 10.76125 74.04125 8.0625 74.0625 C7.2362915 74.071604 6.41008301 74.08070801 5.55883789 74.09008789 C3.70566241 74.09723945 1.85250692 74.0502852 0 74 C-1.87875362 72.12124638 -1.12780723 68.90062044 -1.12939453 66.40063477 C-1.13114685 65.71119781 -1.13289917 65.02176086 -1.13470459 64.31143188 C-1.13912314 62.02139809 -1.1361848 59.7314409 -1.1328125 57.44140625 C-1.13348562 55.85578903 -1.13445571 54.27017192 -1.13571167 52.68455505 C-1.13718871 49.3563438 -1.13503418 46.02815932 -1.13037109 42.69995117 C-1.12467843 38.42801305 -1.12794983 34.15613781 -1.13394356 29.884202 C-1.13755296 26.60804265 -1.13640875 23.33189825 -1.13381577 20.05573845 C-1.13314731 18.48042735 -1.1339721 16.9051149 -1.13629532 15.32980537 C-1.13882754 13.12942012 -1.13497298 10.92913736 -1.12939453 8.72875977 C-1.12859894 7.47490982 -1.12780334 6.22105988 -1.12698364 4.92921448 C-1 2 -1 2 0 0 Z M16 14 C16 20.93 16 27.86 16 35 C18.84625 35.0825 21.6925 35.165 24.625 35.25 C25.95265381 35.30462402 25.95265381 35.30462402 27.30712891 35.36035156 C32.66871631 35.43517002 35.81276382 34.67208725 40 31 C41.51687471 26.44937587 41.71895824 22.61765604 39.75 18.1875 C37.87254288 15.8406786 36.74685674 15.11276867 34 14 C31.8784414 13.72821919 31.8784414 13.72821919 29.671875 13.8046875 C28.9509668 13.80968262 28.23005859 13.81467773 27.48730469 13.81982422 C26.13233887 13.84713623 26.13233887 13.84713623 24.75 13.875 C20.41875 13.936875 20.41875 13.936875 16 14 Z " fill="#161516" transform="translate(266,458)"/>
<path d="M0 0 C42.47310831 0 42.47310831 0 50.4609375 6.37890625 C55.40276332 11.58412888 57.31575319 17.41239746 57.625 24.5 C57.29794045 31.80719885 55.32420402 37.59074172 50.16796875 42.87890625 C42.7341818 48.96376145 34.73143038 49.29805103 25.5 49.125 C20.7975 49.063125 20.7975 49.063125 16 49 C16 57.25 16 65.5 16 74 C10.72 74 5.44 74 0 74 C0 49.58 0 25.16 0 0 Z M16 14 C16 20.93 16 27.86 16 35 C18.68125 35.061875 21.3625 35.12375 24.125 35.1875 C25.37434326 35.22846802 25.37434326 35.22846802 26.64892578 35.27026367 C31.51447731 35.32424796 34.7729454 34.66800205 39 32 C41.63112918 28.65129014 41.36141398 25.12011936 41 21 C39.71650996 17.96015517 38.84250141 16.46114187 35.9375 14.87109375 C31.96559933 13.69325618 28.30156962 13.78603438 24.1875 13.875 C21.485625 13.91625 18.78375 13.9575 16 14 Z " fill="#131313" transform="translate(665,458)"/>
<path d="M0 0 C4.95 0 9.9 0 15 0 C15.33 12.87 15.66 25.74 16 39 C23.17757467 31.24748476 23.17757467 31.24748476 30.1015625 23.2734375 C34.18824924 20.06797701 37.34187373 20.31193473 42.375 20.625 C43.20644531 20.65207031 44.03789063 20.67914063 44.89453125 20.70703125 C46.93081888 20.77724806 48.96575833 20.88485425 51 21 C46.80822564 25.94414411 42.51250993 30.77748909 38.1484375 35.5703125 C36.01281914 37.98550272 33.99274155 40.46624264 32 43 C33.63564426 48.06650783 36.6604215 51.98988531 39.75 56.25 C40.83420119 57.76370169 41.91754291 59.27801936 43 60.79296875 C43.77730469 61.87843994 43.77730469 61.87843994 44.5703125 62.98583984 C47.1348369 66.59877125 49.58672395 70.28482502 52 74 C51.67 74.66 51.34 75.32 51 76 C45.1885817 76.93573685 39.46652757 77.56211282 34 75 C27.95120232 69.14772387 23.91714712 61.37561411 20 54 C17.03917156 56.5526165 17.03917156 56.5526165 15.45410156 60.01464844 C15.4331543 60.7059082 15.41220703 61.39716797 15.390625 62.109375 C15.34228516 63.24052734 15.34228516 63.24052734 15.29296875 64.39453125 C15.27169922 65.56048828 15.27169922 65.56048828 15.25 66.75 C15.22035156 67.54277344 15.19070313 68.33554687 15.16015625 69.15234375 C15.08972213 71.10102094 15.04256518 73.05051495 15 75 C10.05 75 5.1 75 0 75 C0 50.25 0 25.5 0 0 Z " fill="#101010" transform="translate(804,457)"/>
<path d="M0 0 C6.48032065 4.33550656 10.25812566 9.48788449 12.59375 16.87890625 C13.10285481 19.5370208 13.09469694 22.04545697 13.0625 24.75 C13.05347656 25.73484375 13.04445313 26.7196875 13.03515625 27.734375 C13.02355469 28.48203125 13.01195312 29.2296875 13 30 C8.75054147 31.03987597 4.64072144 31.12989631 0.29296875 31.09765625 C-0.79512337 31.09553383 -0.79512337 31.09553383 -1.90519714 31.09336853 C-4.2076745 31.08779931 -6.51005235 31.07525261 -8.8125 31.0625 C-10.37955588 31.05748102 -11.9466133 31.05291881 -13.51367188 31.04882812 C-17.34248589 31.03783998 -21.17122611 31.02059673 -25 31 C-23.09754098 36.15329506 -23.09754098 36.15329506 -19.375 40 C-15.08884812 41.26997093 -11.27680336 41.42300912 -7 40 C-6.40960937 39.32582031 -5.81921875 38.65164063 -5.2109375 37.95703125 C-2.08759263 35.19237439 0.79962942 35.5558419 4.75 35.75 C5.44738281 35.76804687 6.14476562 35.78609375 6.86328125 35.8046875 C8.57611539 35.85161446 10.28823824 35.92335395 12 36 C10.97976544 42.39566397 8.11635515 46.33393318 3.0625 50.3125 C-5.15197503 54.83884339 -14.70466484 55.62431939 -23.80078125 53.27734375 C-31.07670362 50.25691883 -35.82476547 45.2225677 -38.84765625 37.96484375 C-42.33741364 28.50192023 -41.35688866 20.0052508 -37.3125 10.875 C-33.37301473 3.54238142 -27.45814966 0.2212623 -19.69921875 -2.30859375 C-12.77322342 -4.08269096 -6.39928684 -3.14938724 0 0 Z M-23 14 C-25.2773501 16.81509993 -25.2773501 16.81509993 -25 20 C-17.41 20 -9.82 20 -2 20 C-2.3425482 14.27588433 -2.3425482 14.27588433 -4.875 12.1875 C-11.58867136 8.43574248 -17.13674194 9.22758065 -23 14 Z " fill="#161515" transform="translate(519,479)"/>
<path d="M0 0 C5.79906434 5.04960899 8.63342527 10.9133706 9.31640625 18.52734375 C9.64653961 29.18745644 7.89064665 36.5895729 0.64453125 44.49609375 C-6.2254666 50.77863335 -13.42788464 51.37719438 -22.390625 51.265625 C-30.05219026 50.70178686 -35.14182035 48.3147886 -40.4375 42.75 C-47.14885614 34.38453184 -48.07800314 26.66978111 -47 16 C-45.15196685 8.6188676 -40.31163047 1.83616757 -33.9453125 -2.3515625 C-23.04169003 -8.07082108 -10.08285499 -7.06895811 0 0 Z M-30 13 C-31.14888581 16.44665742 -31.2039347 19.24351905 -31.25 22.875 C-31.28867187 24.69644531 -31.28867187 24.69644531 -31.328125 26.5546875 C-30.88192825 31.23975337 -29.41113493 33.83077391 -25.8125 36.8125 C-22.1342055 38.36555768 -18.8951947 38.67211203 -15 38 C-10.96997445 36.09904455 -9.35377053 34.61320225 -7.125 30.75 C-5.39820974 24.99403248 -5.37135233 20.98520317 -7.1875 15.25 C-9.20613654 11.63037586 -10.33490123 9.94952062 -14 8 C-21.01416685 6.75668614 -25.21798192 7.72751853 -30 13 Z " fill="#121212" transform="translate(407,482)"/>
<path d="M0 0 C3.54344325 2.78951916 5.31417229 5.62131283 7.125 9.75 C7.125 11.73 7.125 13.71 7.125 15.75 C2.175 16.08 -2.775 16.41 -7.875 16.75 C-8.865 14.77 -9.855 12.79 -10.875 10.75 C-13.96140454 8.77813043 -15.76003046 8.74596598 -19.4375 8.875 C-23.3285943 9.86546037 -24.60392402 10.46955691 -26.875 13.75 C-29.10313732 19.90390309 -29.23967316 25.3448405 -27.875 31.75 C-26.14878352 35.5160519 -26.14878352 35.5160519 -22.875 37.75 C-19.81579426 38.17071592 -16.9282254 38.23514117 -13.875 37.75 C-11.11930553 35.56840855 -9.43911253 33.87822506 -7.875 30.75 C-2.925 30.75 2.025 30.75 7.125 30.75 C7.125 37.38099727 6.17658982 39.81276115 2.125 44.75 C-4.98310356 51.31259794 -12.65985663 52.27867511 -22.10546875 52.12109375 C-28.47417346 51.49412282 -33.20876885 49.4616138 -37.7109375 44.8828125 C-44.28879712 36.63642264 -46.04175862 28.11686952 -45.17236328 17.74951172 C-44.13151182 10.75068293 -40.49760821 4.64232818 -35.0625 0.1875 C-23.98959959 -6.96242998 -11.17047839 -7.24765515 0 0 Z " fill="#131313" transform="translate(791.875,481.25)"/>
<path d="M0 0 C5.28 0 10.56 0 16 0 C16 4.62 16 9.24 16 14 C24.91 14 33.82 14 43 14 C42.67 14.66 42.34 15.32 42 16 C41.15695312 15.96519531 40.31390625 15.93039062 39.4453125 15.89453125 C37.80175781 15.85392578 37.80175781 15.85392578 36.125 15.8125 C35.03445313 15.77769531 33.94390625 15.74289062 32.8203125 15.70703125 C31.42425781 15.85205078 31.42425781 15.85205078 30 16 C29.34 16.99 28.68 17.98 28 19 C27.67 18.67 27.34 18.34 27 18 C26.67 20.64 26.34 23.28 26 26 C22.7 26 19.4 26 16 26 C16.11798944 29.96952899 16.24221799 33.93880781 16.37231445 37.90795898 C16.41571223 39.25914147 16.4573837 40.61038053 16.49731445 41.96166992 C16.55489952 43.90036701 16.61914298 45.83886276 16.68359375 47.77734375 C16.72025146 48.94515381 16.75690918 50.11296387 16.79467773 51.31616211 C16.70076188 53.91779795 16.70076188 53.91779795 18 55 C19.34747084 55.23075082 20.70377565 55.41153063 22.0625 55.5625 C23.361875 55.706875 24.66125 55.85125 26 56 C26 59.96 26 63.92 26 68 C23.45716766 68.10871967 20.91904912 68.18762401 18.375 68.25 C17.66214844 68.28351563 16.94929687 68.31703125 16.21484375 68.3515625 C11.00792508 68.44710229 8.07691396 67.51499326 4 64 C0.64139313 59.90938907 0.4279132 55.73823636 0.25 50.625 C0.21398682 49.8407666 0.17797363 49.0565332 0.14086914 48.24853516 C-0.13701743 40.78249869 0.28738842 33.43308695 1 26 C-0.7015625 26.0309375 -0.7015625 26.0309375 -2.4375 26.0625 C-6 26 -6 26 -7 25 C-7.09851171 23.16884117 -7.12972629 21.33380067 -7.125 19.5 C-7.12757813 18.4996875 -7.13015625 17.499375 -7.1328125 16.46875 C-7 14 -7 14 -6 13 C-4.02 13 -2.04 13 0 13 C0 8.71 0 4.42 0 0 Z " fill="#161617" transform="translate(579,464)"/>
<path d="M0 0 C1 1 1 1 1.125 4.6875 C1.08693698 8.20832979 0.69181295 11.54093525 0 15 C-1.12148438 15.14695312 -1.12148438 15.14695312 -2.265625 15.296875 C-8.32686441 16.12543309 -8.32686441 16.12543309 -13.625 18.9375 C-16.25575826 22.88363739 -16.18408036 26.44281273 -16.31640625 31.07421875 C-16.33718735 31.7580513 -16.35796844 32.44188385 -16.37937927 33.1464386 C-16.44466154 35.3266921 -16.50366017 37.50706405 -16.5625 39.6875 C-16.60570553 41.16732986 -16.64932047 42.64714783 -16.69335938 44.12695312 C-16.80109025 47.75118254 -16.90032107 51.37550438 -17 55 C-21.95 55 -26.9 55 -32 55 C-33.09698774 24.87201521 -33.09698774 24.87201521 -33.125 11.125 C-33.12951172 10.2057373 -33.13402344 9.28647461 -33.13867188 8.33935547 C-33.12421526 2.12421526 -33.12421526 2.12421526 -32 1 C-29.64686445 0.92728259 -27.29166332 0.91629132 -24.9375 0.9375 C-23.64714844 0.94652344 -22.35679687 0.95554687 -21.02734375 0.96484375 C-20.02832031 0.97644531 -19.02929688 0.98804688 -18 1 C-17.67 3.31 -17.34 5.62 -17 8 C-16.484375 7.236875 -15.96875 6.47375 -15.4375 5.6875 C-11.16443884 0.97617615 -6.28533224 -0.59860307 0 0 Z " fill="#070707" transform="translate(570,477)"/>
<path d="M0 0 C0 4.95 0 9.9 0 15 C-1.546875 15.12375 -3.09375 15.2475 -4.6875 15.375 C-10.15425158 15.77450166 -10.15425158 15.77450166 -15 18 C-17.5109273 25.21782238 -17.19534679 32.3067584 -17.0625 39.875 C-17.0281886 42.30983825 -16.99802029 44.7447396 -16.97265625 47.1796875 C-16.94570679 48.78432861 -16.94570679 48.78432861 -16.91821289 50.42138672 C-17 53 -17 53 -18 55 C-22.95 55 -27.9 55 -33 55 C-33 37.18 -33 19.36 -33 1 C-28.05 1 -23.1 1 -18 1 C-17.67 2.98 -17.34 4.96 -17 7 C-16.2575 6.21625 -15.515 5.4325 -14.75 4.625 C-9.75845816 -0.13965357 -6.71405813 -0.22380194 0 0 Z " fill="#181717" transform="translate(360,477)"/>
<path d="M0 0 C4.95 0 9.9 0 15 0 C16.65408456 1.65408456 16.12742355 3.59553892 16.12939453 5.87109375 C16.13254669 6.90886963 16.13569885 7.94664551 16.13894653 9.01586914 C16.1369223 10.14500732 16.13489807 11.27414551 16.1328125 12.4375 C16.13424759 14.16311157 16.13424759 14.16311157 16.13571167 15.92358398 C16.13639369 18.36149144 16.1345379 20.7994007 16.13037109 23.23730469 C16.12502317 26.98376518 16.13031539 30.73010577 16.13671875 34.4765625 C16.13605797 36.83854193 16.13477682 39.20052129 16.1328125 41.5625 C16.13483673 42.69163818 16.13686096 43.82077637 16.13894653 44.98413086 C16.13579437 46.02190674 16.13264221 47.05968262 16.12939453 48.12890625 C16.12859894 49.04744385 16.12780334 49.96598145 16.12698364 50.91235352 C16 53 16 53 15 54 C10.05 54 5.1 54 0 54 C0 36.18 0 18.36 0 0 Z " fill="#1F1E1F" transform="translate(726,478)"/>
<path d="M0 0 C1.36054379 0.04522179 2.72123292 0.08627296 4.08203125 0.12304688 C7.38958047 0.22860696 10.69526451 0.39002347 14 0.5625 C14 7.1625 14 13.7625 14 20.5625 C1.79 20.5625 -10.42 20.5625 -23 20.5625 C-23 7.95421975 -23 7.95421975 -19.9375 4.41015625 C-14.18968928 -1.27556392 -7.61578935 -0.43636011 0 0 Z " fill="#020202" transform="translate(198,492.4375)"/>
<path d="M0 0 C19.47 0 38.94 0 59 0 C59 0.33 59 0.66 59 1 C39.86 1 20.72 1 1 1 C1 15.85 1 30.7 1 46 C5.95 46 10.9 46 16 46 C15.87625 44.14375 15.7525 42.2875 15.625 40.375 C15.58449188 34.66335507 15.58449188 34.66335507 17.3359375 31.8671875 C19 30.25 19 30.25 22 28 C22.66 28.33 23.32 28.66 24 29 C23.030625 29.763125 22.06125 30.52625 21.0625 31.3125 C16.89618011 35.62056207 16.89618011 35.62056207 17 46 C29.21 46 41.42 46 54 46 C54 39.4 54 32.8 54 26 C54.33 26 54.66 26 55 26 C55 32.93 55 39.86 55 47 C51.27573819 48.2414206 47.91648103 48.01823389 44.05078125 47.87890625 C43.27816452 47.85529526 42.50554779 47.83168427 41.70951843 47.80735779 C39.2436536 47.73083079 36.77811154 47.64675953 34.3125 47.5625 C32.63998971 47.50926832 30.96746371 47.45652799 29.29492188 47.40429688 C25.19635092 47.27615297 21.09830295 47.13781153 17 47 C17 58.22 17 69.44 17 81 C15.515 80.505 15.515 80.505 14 80 C14.99 79.505 14.99 79.505 16 79 C16 68.44 16 57.88 16 47 C10.72 47 5.44 47 0 47 C0 31.49 0 15.98 0 0 Z " fill="#999999" transform="translate(158,467)"/>
<path d="M0 0 C1.17433594 -0.02578125 2.34867188 -0.0515625 3.55859375 -0.078125 C4.54988281 0.03015625 5.54117188 0.1384375 6.5625 0.25 C8.75091354 3.53262031 8.81104665 4.56790898 8.75 8.375 C8.74355469 9.26445312 8.73710938 10.15390625 8.73046875 11.0703125 C8.5625 13.25 8.5625 13.25 7.5625 14.25 C5.03200598 14.32313567 2.52945163 14.34247527 0 14.3125 C-1.06637695 14.30573242 -1.06637695 14.30573242 -2.15429688 14.29882812 C-3.91540013 14.28700864 -5.67646036 14.26907263 -7.4375 14.25 C-7.46435938 12.10423363 -7.48383088 9.95837355 -7.5 7.8125 C-7.51160156 6.61753906 -7.52320313 5.42257812 -7.53515625 4.19140625 C-7.35934288 -1.10409231 -4.70740842 0.06187174 0 0 Z " fill="#242424" transform="translate(733.4375,456.75)"/>
<path d="M0 0 C1.93166016 0.01740234 1.93166016 0.01740234 3.90234375 0.03515625 C5.19269531 0.04417969 6.48304688 0.05320312 7.8125 0.0625 C8.81152344 0.07410156 9.81054688 0.08570313 10.83984375 0.09765625 C11.16984375 2.40765625 11.49984375 4.71765625 11.83984375 7.09765625 C12.70609375 5.89109375 12.70609375 5.89109375 13.58984375 4.66015625 C15.92748229 1.99784569 16.55353343 1.6983054 19.83984375 1.09765625 C19.42992187 1.56816406 19.02 2.03867187 18.59765625 2.5234375 C18.05882812 3.14605469 17.52 3.76867187 16.96484375 4.41015625 C16.43117188 5.02503906 15.8975 5.63992188 15.34765625 6.2734375 C13.67579905 8.23263837 13.67579905 8.23263837 11.83984375 11.09765625 C11.17984375 11.09765625 10.51984375 11.09765625 9.83984375 11.09765625 C9.83984375 7.79765625 9.83984375 4.49765625 9.83984375 1.09765625 C5.87984375 1.09765625 1.91984375 1.09765625 -2.16015625 1.09765625 C-2.16015625 18.25765625 -2.16015625 35.41765625 -2.16015625 53.09765625 C2.12984375 53.09765625 6.41984375 53.09765625 10.83984375 53.09765625 C10.83984375 42.20765625 10.83984375 31.31765625 10.83984375 20.09765625 C11.49984375 20.09765625 12.15984375 20.09765625 12.83984375 20.09765625 C12.50984375 31.31765625 12.17984375 42.53765625 11.83984375 54.09765625 C6.88984375 54.09765625 1.93984375 54.09765625 -3.16015625 54.09765625 C-4.25714399 23.96967146 -4.25714399 23.96967146 -4.28515625 10.22265625 C-4.28966797 9.30339355 -4.29417969 8.38413086 -4.29882812 7.43701172 C-4.28183717 0.13231882 -4.28183717 0.13231882 0 0 Z " fill="#5B595B" transform="translate(541.16015625,477.90234375)"/>
<path d="M0 0 C0.99 0.33 1.98 0.66 3 1 C2.9278125 2.12277344 2.855625 3.24554687 2.78125 4.40234375 C2.15016504 13.94318119 2.15016504 13.94318119 2 23.5 C2 24.655 2 25.81 2 27 C1 28 1 28 -2.16015625 28.09765625 C-3.44792969 28.08605469 -4.73570312 28.07445312 -6.0625 28.0625 C-7.35285156 28.05347656 -8.64320313 28.04445313 -9.97265625 28.03515625 C-10.97167969 28.02355469 -11.97070312 28.01195312 -13 28 C-13 27.67 -13 27.34 -13 27 C-8.71 27 -4.42 27 0 27 C0 18.09 0 9.18 0 0 Z " fill="#7B7C7E" transform="translate(434,525)"/>
<path d="M0 0 C0.33 0 0.66 0 1 0 C1 3.96 1 7.92 1 12 C9.91 12 18.82 12 28 12 C27.67 12.66 27.34 13.32 27 14 C26.15695312 13.96519531 25.31390625 13.93039062 24.4453125 13.89453125 C22.80175781 13.85392578 22.80175781 13.85392578 21.125 13.8125 C20.03445313 13.77769531 18.94390625 13.74289062 17.8203125 13.70703125 C16.42425781 13.85205078 16.42425781 13.85205078 15 14 C14.01 15.485 14.01 15.485 13 17 C12.34 16.67 11.68 16.34 11 16 C11 15.01 11 14.02 11 13 C7.37 13 3.74 13 0 13 C0 8.71 0 4.42 0 0 Z " fill="#888789" transform="translate(594,466)"/>
<path d="M0 0 C4.62 0 9.24 0 14 0 C14.33 2.31 14.66 4.62 15 7 C15.86625 5.7934375 15.86625 5.7934375 16.75 4.5625 C19.08763854 1.90018944 19.71368968 1.60064915 23 1 C22.59007812 1.47050781 22.18015625 1.94101562 21.7578125 2.42578125 C21.21898437 3.04839844 20.68015625 3.67101562 20.125 4.3125 C19.59132813 4.92738281 19.05765625 5.54226563 18.5078125 6.17578125 C16.8359553 8.13498212 16.8359553 8.13498212 15 11 C14.34 11 13.68 11 13 11 C13 7.7 13 4.4 13 1 C8.71 1 4.42 1 0 1 C0 0.67 0 0.34 0 0 Z " fill="#545355" transform="translate(538,478)"/>
<path d="M0 0 C0.99 0.33 1.98 0.66 3 1 C0.42215154 3.64752004 -1.91648098 5.94432065 -5 8 C-5.99 8 -6.98 8 -8 8 C-7.8125 6.125 -7.8125 6.125 -7 4 C-4.5625 2.875 -4.5625 2.875 -2 2 C-1.34 1.34 -0.68 0.68 0 0 Z " fill="#2B2B2C" transform="translate(792,523)"/>
<path d="M0 0 C0.66 0 1.32 0 2 0 C0.64978174 4.41889613 -1.26115668 6.34345343 -5 9 C-5.33 8.01 -5.66 7.02 -6 6 C-4.68 5.67 -3.36 5.34 -2 5 C-1.855625 4.360625 -1.71125 3.72125 -1.5625 3.0625 C-1 1 -1 1 0 0 Z " fill="#464748" transform="translate(717,494)"/>
<path d="M0 0 C-1.38188453 3.21043882 -2.92421903 5.04936365 -5.625 7.25 C-6.57246094 8.03117187 -6.57246094 8.03117187 -7.5390625 8.828125 C-8.02117187 9.21484375 -8.50328125 9.6015625 -9 10 C-7.6834994 5.81113445 -4.97532335 0 0 0 Z " fill="#535253" transform="translate(491,481)"/>
<path d="M0 0 C0.66 0.33 1.32 0.66 2 1 C-0.97 3.97 -3.94 6.94 -7 10 C-7 6.04435836 -5.59478606 4.89133304 -3 2 C-2.01 1.34 -1.02 0.68 0 0 Z " fill="#4F4F50" transform="translate(759,480)"/>
<path d="M0 0 C0 3 0 3 -2.375 5.625 C-5 8 -5 8 -7 9 C-7 8.01 -7 7.02 -7 6 C-6.01 6 -5.02 6 -4 6 C-3.896875 5.38125 -3.79375 4.7625 -3.6875 4.125 C-3 2 -3 2 0 0 Z " fill="#4A4A49" transform="translate(319,494)"/>
<path d="M0 0 C0 3.77910478 -0.99703962 4.46106101 -3.5 7.1875 C-4.47453125 8.26064453 -4.47453125 8.26064453 -5.46875 9.35546875 C-5.9740625 9.89816406 -6.479375 10.44085938 -7 11 C-7 7.22089522 -6.00296038 6.53893899 -3.5 3.8125 C-2.8503125 3.09707031 -2.200625 2.38164062 -1.53125 1.64453125 C-1.0259375 1.10183594 -0.520625 0.55914062 0 0 Z " fill="#525153" transform="translate(828,487)"/>
<path d="M0 0 C0.66 0.33 1.32 0.66 2 1 C1.360625 1.598125 0.72125 2.19625 0.0625 2.8125 C-2.20310389 4.90810337 -2.20310389 4.90810337 -3 8 C-3.66 8 -4.32 8 -5 8 C-5 7.34 -5 6.68 -5 6 C-5.66 5.67 -6.32 5.34 -7 5 C-4.69 3.35 -2.38 1.7 0 0 Z " fill="#323232" transform="translate(152,453)"/>
<path d="M0 0 C3.82946843 1.45255699 5.12050295 3.42895561 7 7 C6.01 7 5.02 7 4 7 C0 2.65714286 0 2.65714286 0 0 Z " fill="#353636" transform="translate(363,518)"/>
<path d="" fill="#DAD1D8" transform="translate(0,0)"/>
</svg>
